<svg width="29" height="24" viewBox="0 0 29 24" fill="none" xmlns="http://www.w3.org/2000/svg">
<path d="M0 1.13163C0 0.506972 0.499692 0 1.11538 0H20.4487C21.0644 0 21.5641 0.506972 21.5641 1.13163C21.5641 1.7563 21.0644 2.26327 20.4487 2.26327H1.11538C0.499692 2.26327 0 1.7563 0 1.13163ZM27.8846 10.5619H1.11538C0.499692 10.5619 0 11.0689 0 11.6935C0 12.3182 0.499692 12.8252 1.11538 12.8252H27.8846C28.5003 12.8252 29 12.3182 29 11.6935C29 11.0689 28.5003 10.5619 27.8846 10.5619ZM14.5 21.1238H1.11538C0.499692 21.1238 0 21.6308 0 22.2555C0 22.8801 0.499692 23.3871 1.11538 23.3871H14.5C15.1157 23.3871 15.6154 22.8801 15.6154 22.2555C15.6154 21.6308 15.1157 21.1238 14.5 21.1238Z" fill="white"/>
</svg>
