<svg width="22" height="20" viewBox="0 0 22 20" fill="none" xmlns="http://www.w3.org/2000/svg">
<path d="M16.418 11.0833C17.275 11.0833 18.1128 11.3375 18.8254 11.8136C19.5381 12.2898 20.0935 12.9666 20.4214 13.7584C20.7494 14.5502 20.8352 15.4215 20.668 16.2621C20.5008 17.1026 20.0881 17.8748 19.4821 18.4808C18.8761 19.0868 18.1039 19.4995 17.2634 19.6667C16.4228 19.8339 15.5515 19.7481 14.7597 19.4201C13.9679 19.0922 13.2911 18.5368 12.8149 17.8241C12.3388 17.1115 12.0846 16.2737 12.0846 15.4167H9.91797C9.91756 16.468 9.53497 17.4833 8.84148 18.2734C8.14798 19.0636 7.19089 19.5747 6.14851 19.7115C5.10614 19.8483 4.04958 19.6015 3.17568 19.017C2.30179 18.4326 1.67016 17.5504 1.39849 16.5348C1.12681 15.5192 1.23362 14.4394 1.69901 13.4967C2.16439 12.554 2.95662 11.8127 3.92808 11.4108C4.89954 11.0089 5.98398 10.9739 6.97935 11.3122C7.97472 11.6506 8.81314 12.3393 9.33839 13.25H12.6642C13.0445 12.591 13.5916 12.0437 14.2506 11.6634C14.9096 11.283 15.6571 11.0829 16.418 11.0833ZM5.58464 13.25C5.01 13.25 4.4589 13.4783 4.05257 13.8846C3.64624 14.2909 3.41797 14.842 3.41797 15.4167C3.41797 15.9913 3.64624 16.5424 4.05257 16.9487C4.4589 17.3551 5.01 17.5833 5.58464 17.5833C6.15927 17.5833 6.71037 17.3551 7.1167 16.9487C7.52303 16.5424 7.7513 15.9913 7.7513 15.4167C7.7513 14.842 7.52303 14.2909 7.1167 13.8846C6.71037 13.4783 6.15927 13.25 5.58464 13.25ZM16.418 13.25C15.8433 13.25 15.2922 13.4783 14.8859 13.8846C14.4796 14.2909 14.2513 14.842 14.2513 15.4167C14.2513 15.9913 14.4796 16.5424 14.8859 16.9487C15.2922 17.3551 15.8433 17.5833 16.418 17.5833C16.9926 17.5833 17.5437 17.3551 17.95 16.9487C18.3564 16.5424 18.5846 15.9913 18.5846 15.4167C18.5846 14.842 18.3564 14.2909 17.95 13.8846C17.5437 13.4783 16.9926 13.25 16.418 13.25ZM15.3346 0.25C16.4839 0.25 17.5861 0.706546 18.3988 1.5192C19.2114 2.33186 19.668 3.43406 19.668 4.58333V7.83333H21.8346V10H0.167969V7.83333H2.33464V4.58333C2.33464 3.43406 2.79118 2.33186 3.60384 1.5192C4.4165 0.706546 5.5187 0.25 6.66797 0.25H15.3346ZM15.3346 2.41667H6.66797C5.52614 2.41667 4.5013 3.44583 4.5013 4.58333V7.83333H17.5013V4.58333C17.5013 3.4415 16.4721 2.41667 15.3346 2.41667Z" fill="currentColor"/>
</svg>
