<svg width="21" height="19" viewBox="0 0 21 19" fill="none" xmlns="http://www.w3.org/2000/svg">
<path d="M16.1658 4.7457L4.64685 14.7646C4.31796 15.0507 3.88211 15.0938 3.67396 14.8608C3.46581 14.6278 3.5638 14.2066 3.89268 13.9205L15.4116 3.90159C15.7405 3.61553 16.1764 3.57245 16.3845 3.80542C16.5927 4.0384 16.4947 4.45964 16.1658 4.7457Z" fill="#050303"/>
<path d="M16.7227 9.69055C16.5861 9.80933 16.4034 9.87621 16.2062 9.86208C15.8118 9.83504 15.5102 9.49748 15.5324 9.10795L15.7964 4.49597L11.1258 4.17577C10.7314 4.14873 10.4297 3.81104 10.452 3.42164C10.4744 3.03214 10.8121 2.7384 11.2065 2.76543L16.5904 3.13466C16.9848 3.16169 17.2864 3.49926 17.2641 3.88865L16.9599 9.20509C16.9494 9.40129 16.8593 9.57176 16.7227 9.69055Z" fill="#050303"/>
</svg>