<svg width="20" height="20" viewBox="0 0 20 20" fill="none" xmlns="http://www.w3.org/2000/svg">
<path d="M8.80758 0C3.95121 0 0 3.95121 0 8.80758C0 13.6642 3.95121 17.6152 8.80758 17.6152C13.6642 17.6152 17.6152 13.6642 17.6152 8.80758C17.6152 3.95121 13.6642 0 8.80758 0ZM8.80758 15.9892C4.84769 15.9892 1.62602 12.7675 1.62602 8.80762C1.62602 4.84773 4.84769 1.62602 8.80758 1.62602C12.7675 1.62602 15.9891 4.84769 15.9891 8.80758C15.9891 12.7675 12.7675 15.9892 8.80758 15.9892Z" fill="black"/>
<path d="M19.76 18.6124L15.0988 13.9511C14.7811 13.6335 14.2668 13.6335 13.9492 13.9511C13.6315 14.2684 13.6315 14.7834 13.9492 15.1007L18.6104 19.762C18.7692 19.9208 18.9771 20.0002 19.1852 20.0002C19.3931 20.0002 19.6012 19.9208 19.76 19.762C20.0776 19.4446 20.0776 18.9297 19.76 18.6124Z" fill="black"/>
</svg>
