<svg width="65" height="64" viewBox="0 0 65 64" fill="none" xmlns="http://www.w3.org/2000/svg">
<path d="M64.766 50.5061L60.9908 39.5192C62.8106 35.7992 63.7722 31.662 63.7787 27.4994C63.7899 20.2614 60.9896 13.4177 55.8934 8.22912C50.7962 3.03952 44.004 0.11819 36.7676 0.00355138C29.264 -0.115023 22.211 2.73914 16.9086 8.04148C11.7956 13.1543 8.95975 19.8946 8.86999 27.0974C3.83071 30.8916 0.856317 36.807 0.866092 43.1253C0.870789 46.0821 1.53628 49.0212 2.79731 51.6789L0.196921 59.2464C-0.250082 60.5473 0.0764421 61.9597 1.04916 62.9325C1.73369 63.6171 2.6362 63.9816 3.56436 63.9816C3.95487 63.9816 4.34995 63.9171 4.73525 63.7847L12.3028 61.1843C14.9606 62.4453 17.8997 63.1108 20.8564 63.1155C20.8671 63.1155 20.8772 63.1155 20.8879 63.1155C27.3003 63.1153 33.2608 60.0642 37.0411 54.9014C40.975 54.7978 44.8672 53.8455 48.386 52.1241L59.3731 55.8995C59.8308 56.0568 60.3003 56.1335 60.7643 56.1335C61.8673 56.1335 62.9398 55.7003 63.7535 54.8865C64.9092 53.7306 65.2972 52.0522 64.766 50.5061ZM20.8877 59.2465C20.8794 59.2465 20.8706 59.2465 20.8624 59.2465C18.2454 59.2426 15.6465 58.5974 13.3473 57.3809C12.8745 57.1309 12.3194 57.0876 11.8139 57.2613L4.05414 59.9277L6.72055 52.1681C6.89422 51.6624 6.85105 51.1074 6.60096 50.6347C5.38449 48.3353 4.73931 45.7366 4.73525 43.1195C4.72877 38.9098 6.36635 34.9198 9.23003 31.9321C10.1654 37.6343 12.8831 42.8889 17.0957 47.0266C21.2771 51.1337 26.5333 53.7486 32.2045 54.6035C29.21 57.5551 25.1733 59.2465 20.8877 59.2465ZM61.0174 52.1507C60.9073 52.2607 60.7768 52.2907 60.63 52.2402L48.868 48.1985C48.6638 48.1283 48.4513 48.0935 48.2395 48.0935C47.9273 48.0935 47.6163 48.169 47.3348 48.3181C43.9765 50.0947 40.1816 51.0369 36.3601 51.0428C36.3475 51.0428 36.3361 51.0428 36.3235 51.0428C23.5186 51.0428 12.9418 40.641 12.7389 27.8391C12.6367 21.3918 15.0892 15.3324 19.6444 10.7772C24.1996 6.22198 30.26 3.77039 36.7064 3.87195C49.5206 4.0752 59.9295 14.6716 59.9097 27.4933C59.9037 31.3148 58.9616 35.1099 57.1851 38.4679C56.935 38.9405 56.8919 39.4956 57.0656 40.0012L61.1071 51.7632C61.1575 51.9105 61.1273 52.0409 61.0174 52.1507Z" fill="white"/>
<path d="M38.9751 33.1147H24.7978C23.7294 33.1147 22.8633 33.9809 22.8633 35.0493C22.8633 36.1177 23.7295 36.9838 24.7978 36.9838H38.9749C40.0434 36.9838 40.9095 36.1176 40.9095 35.0493C40.9095 33.9809 40.0435 33.1147 38.9751 33.1147Z" fill="white"/>
<path d="M47.8474 25.1587H24.7978C23.7294 25.1587 22.8633 26.0249 22.8633 27.0932C22.8633 28.1615 23.7295 29.0277 24.7978 29.0277H47.8474C48.9159 29.0277 49.782 28.1615 49.782 27.0932C49.782 26.0249 48.9159 25.1587 47.8474 25.1587Z" fill="white"/>
<path d="M47.8474 17.2021H24.7978C23.7294 17.2021 22.8633 18.0684 22.8633 19.1367C22.8633 20.2051 23.7295 21.0712 24.7978 21.0712H47.8474C48.9159 21.0712 49.782 20.205 49.782 19.1367C49.782 18.0684 48.9159 17.2021 47.8474 17.2021Z" fill="white"/>
</svg>
