<svg width="45" height="35" viewBox="0 0 45 35" fill="none" xmlns="http://www.w3.org/2000/svg">
<path d="M14.9973 0.631122L16.7189 3.11787C12.7647 5.36549 10.3073 7.90914 8.77102 10.386C7.17389 12.961 6.58902 15.4368 6.33023 17.3777L6.19305 18.4066L7.08309 17.8726C8.22226 17.1891 9.86775 16.9388 11.5585 17.1804L11.5662 17.1815L11.574 17.1823C15.8927 17.6622 19.2191 21.0061 19.2191 25.5337C19.2191 27.659 18.2736 29.8166 16.8239 31.5139C15.16 33.1714 13.2726 33.882 10.8708 33.882C8.23854 33.882 5.83892 32.6833 4.40682 31.2559C1.96161 28.5633 0.5 25.6485 0.5 20.7303C0.5 12.2579 6.47223 4.66787 14.9973 0.631122ZM40.2782 0.631121L41.9998 3.11787C38.0456 5.36549 35.5882 7.90914 34.0519 10.386C32.4548 12.961 31.8699 15.4368 31.6111 17.3777L31.474 18.4066L32.364 17.8726C33.5032 17.1891 35.1487 16.9388 36.8394 17.1804L36.8471 17.1815L36.8549 17.1823C41.1737 17.6622 44.5 21.0061 44.5 25.5337C44.5 27.6651 43.5491 29.8289 42.0923 31.5285C40.6996 33.1533 38.5856 33.882 36.1517 33.882C33.5194 33.882 31.1198 32.6833 29.6877 31.2559C27.2425 28.5633 25.7809 25.6485 25.7809 20.7303C25.7809 12.2579 31.7531 4.66787 40.2782 0.631121Z" stroke="currentColor"/>
</svg>
