<svg width="34" height="33" viewBox="0 0 34 33" fill="none" xmlns="http://www.w3.org/2000/svg">
<g clip-path="url(#clip0_444_1195)">
<path d="M20.4365 30.0567C20.1562 30.1245 19.8703 30.1848 19.5866 30.2355C18.8449 30.3694 18.3546 31.0617 18.4918 31.7822C18.5595 32.1367 18.7669 32.4319 19.0485 32.6247C19.3388 32.8229 19.7081 32.9125 20.0845 32.8445C20.4224 32.7836 20.7629 32.7121 21.0971 32.6311C21.8295 32.4542 22.2757 31.734 22.0929 31.0235C21.9107 30.3124 21.1693 29.8797 20.4365 30.0567Z" fill="white"/>
<path d="M30.5412 12.2752C30.6369 12.5553 30.8197 12.7839 31.0506 12.9419C31.393 13.1759 31.8409 13.2546 32.2684 13.1175C32.9851 12.8865 33.3734 12.1364 33.1363 11.4411C33.0283 11.1242 32.9084 10.8063 32.7807 10.4967C32.5004 9.81639 31.7053 9.48519 31.0041 9.7573C30.3035 10.0293 29.9621 10.8011 30.2427 11.4816C30.35 11.7418 30.4505 12.0089 30.5412 12.2752Z" fill="white"/>
<path d="M24.8739 28.1629C24.6328 28.3174 24.384 28.4669 24.1333 28.607C23.4792 28.9732 23.2552 29.7847 23.6323 30.4192C23.7347 30.5918 23.8711 30.7329 24.0282 30.8407C24.4498 31.1286 25.0224 31.1718 25.4992 30.9052C25.7972 30.7384 26.0936 30.5609 26.3808 30.3766C27.0103 29.9729 27.1836 29.1498 26.7675 28.5384C26.3514 27.9269 25.5037 27.7589 24.8739 28.1629Z" fill="white"/>
<path d="M33.9864 15.9806C33.9567 15.2484 33.3213 14.6785 32.5667 14.7071C31.813 14.736 31.2254 15.3529 31.255 16.0848C31.2663 16.3647 31.2692 16.6487 31.2626 16.9283C31.252 17.3874 31.4834 17.7968 31.843 18.0428C32.0572 18.1892 32.3171 18.2778 32.599 18.284C33.3534 18.3003 33.9786 17.7195 33.9954 16.9869C34.0029 16.6529 34 16.3145 33.9864 15.9806Z" fill="white"/>
<path d="M30.3182 24.6731C29.7133 24.2325 28.8574 24.3521 28.4044 24.9382C28.2309 25.1627 28.0482 25.3844 27.861 25.5978C27.3721 26.1554 27.4412 26.9929 28.0156 27.4678C28.0484 27.4947 28.0815 27.5195 28.1158 27.5428C28.6869 27.9336 29.4806 27.8437 29.9424 27.3178C30.1658 27.0632 30.3836 26.7983 30.591 26.5303C31.0441 25.9442 30.9215 25.1129 30.3182 24.6731Z" fill="white"/>
<path d="M32.3305 19.8775C31.6103 19.6583 30.8432 20.0475 30.6175 20.7466C30.5311 21.0136 30.4354 21.282 30.332 21.5448C30.1051 22.1234 30.3225 22.76 30.821 23.1011C30.9124 23.1635 31.0131 23.2163 31.1225 23.2565C31.8278 23.5177 32.6175 23.1743 32.8863 22.4895C33.009 22.177 33.1229 21.8577 33.2258 21.5402C33.4513 20.841 33.0507 20.0967 32.3305 19.8775Z" fill="white"/>
<path d="M14.4711 30.2477C13.2491 30.0347 12.0768 29.6721 10.9653 29.1663C10.9521 29.1597 10.9403 29.1521 10.9265 29.146C10.6646 29.0263 10.4031 28.8981 10.1496 28.7642C10.1487 28.7632 10.1471 28.7625 10.1457 28.762C9.68069 28.5134 9.22682 28.2384 8.78589 27.9371C2.35629 23.5411 0.810359 14.8876 5.33984 8.64723C6.32476 7.29077 7.51666 6.15911 8.84545 5.26218C8.86182 5.25111 8.8782 5.24012 8.89442 5.22898C13.5769 2.09752 19.9349 1.88649 24.9069 5.10434L23.8391 6.6019C23.5422 7.01872 23.7248 7.32248 24.2446 7.27708L28.8832 6.87401C29.4035 6.82861 29.7147 6.39171 29.5748 5.90395L28.3292 1.54797C28.1897 1.05964 27.8327 1.00119 27.5355 1.41795L26.4652 2.91905C22.8164 0.54173 18.44 -0.364777 14.0962 0.366302C13.6587 0.439793 13.2274 0.529741 12.8019 0.634444C12.7986 0.635012 12.796 0.635367 12.7934 0.635934C12.7769 0.639836 12.7603 0.645014 12.7443 0.649341C8.99857 1.58295 5.73049 3.70333 3.39851 6.72866C3.37885 6.75129 3.3586 6.77342 3.34004 6.79804C3.2625 6.89941 3.18554 7.00312 3.11018 7.10683C2.98696 7.27679 2.86549 7.45102 2.74928 7.62524C2.73474 7.64624 2.72363 7.66759 2.71091 7.6888C0.786533 10.5831 -0.14167 13.9292 0.0175131 17.3358C0.0178786 17.347 0.0172208 17.3583 0.0175131 17.3697C0.0329344 17.7025 0.0601227 18.0399 0.0970316 18.372C0.0990049 18.3934 0.103902 18.4137 0.107629 18.4352C0.145781 18.7691 0.193652 19.1039 0.253657 19.4386C0.863493 22.8533 2.52315 25.9261 5.01008 28.3171C5.01585 28.3227 5.02184 28.3288 5.02769 28.3346C5.02974 28.3368 5.032 28.3379 5.03397 28.34C5.70213 28.9796 6.42891 29.5712 7.21145 30.1062C9.25934 31.5068 11.5397 32.4326 13.9887 32.8591C14.7318 32.9887 15.4416 32.5086 15.5749 31.7877C15.7082 31.0664 15.2139 30.3769 14.4711 30.2477Z" fill="white"/>
<path d="M16.161 5.90137C15.5498 5.90137 15.0547 6.38232 15.0547 6.97472V17.6683L25.1312 22.7241C25.2934 22.8056 25.467 22.8439 25.6379 22.8439C26.0381 22.8439 26.4247 22.6324 26.6212 22.2633C26.9015 21.7365 26.6894 21.0894 26.1466 20.8173L17.2661 16.3612V6.97472C17.266 6.38232 16.7715 5.90137 16.161 5.90137Z" fill="white"/>
</g>
<defs>
<clipPath id="clip0_444_1195">
<rect width="34" height="33" fill="white"/>
</clipPath>
</defs>
</svg>
