<svg width="22" height="18" viewBox="0 0 22 18" fill="none" xmlns="http://www.w3.org/2000/svg">
<path d="M16.1317 3.41629C16.901 4.38207 17.2857 5.43378 17.2857 6.57143C17.2857 7.70908 16.901 8.76079 16.1317 9.72656C15.3624 10.6923 14.3106 11.4576 12.9766 12.0223C11.6507 12.5789 10.2061 12.8571 8.64286 12.8571C7.93899 12.8571 7.21875 12.7917 6.48214 12.6607C5.46726 13.381 4.32961 13.9048 3.0692 14.2321C2.77455 14.3058 2.42262 14.3713 2.01339 14.4286H1.97656C1.88653 14.4286 1.8006 14.3958 1.71875 14.3304C1.64509 14.2649 1.60007 14.1789 1.58371 14.0725C1.57552 14.048 1.57143 14.0234 1.57143 13.9989C1.57143 13.9661 1.57143 13.9375 1.57143 13.9129C1.57961 13.8884 1.5878 13.8638 1.59598 13.8393C1.61235 13.8147 1.62463 13.7943 1.63281 13.7779C1.641 13.7615 1.65327 13.7411 1.66964 13.7165C1.6942 13.6838 1.71057 13.6633 1.71875 13.6551C1.73512 13.6388 1.75558 13.6183 1.78013 13.5937C1.80469 13.561 1.82106 13.5406 1.82924 13.5324C1.87016 13.4833 1.96429 13.381 2.11161 13.2254C2.25893 13.0699 2.36533 12.9513 2.4308 12.8694C2.49628 12.7794 2.58631 12.6607 2.70089 12.5134C2.82366 12.3579 2.92597 12.1983 3.00781 12.0346C3.09784 11.8709 3.18378 11.6908 3.26562 11.4944C2.25074 10.9051 1.45275 10.1808 0.871652 9.32143C0.290551 8.46205 0 7.54539 0 6.57143C0 5.43378 0.384673 4.38207 1.15402 3.41629C1.92336 2.45052 2.97098 1.68936 4.29688 1.13281C5.63095 0.56808 7.07961 0.285714 8.64286 0.285714C10.2061 0.285714 11.6507 0.56808 12.9766 1.13281C14.3106 1.68936 15.3624 2.45052 16.1317 3.41629ZM22 9.71429C22 10.6964 21.7094 11.6172 21.1283 12.4766C20.5472 13.3278 19.7493 14.048 18.7344 14.6373C18.8162 14.8337 18.8981 15.0138 18.9799 15.1775C19.0699 15.3411 19.1722 15.5007 19.2868 15.6562C19.4096 15.8036 19.5037 15.9182 19.5692 16C19.6347 16.09 19.7411 16.2128 19.8884 16.3683C20.0357 16.5238 20.1298 16.6261 20.1708 16.6752C20.1789 16.6834 20.1953 16.6998 20.2199 16.7243C20.2444 16.7571 20.2608 16.7775 20.269 16.7857C20.2853 16.8021 20.3017 16.8225 20.3181 16.8471C20.3426 16.8798 20.359 16.9044 20.3672 16.9208C20.3754 16.9371 20.3836 16.9576 20.3917 16.9821C20.4081 17.0067 20.4163 17.0313 20.4163 17.0558C20.4245 17.0804 20.4286 17.1049 20.4286 17.1295C20.4286 17.1622 20.4245 17.1908 20.4163 17.2154C20.3917 17.33 20.3385 17.42 20.2567 17.4855C20.1749 17.551 20.0848 17.5796 19.9866 17.5714C19.5774 17.5141 19.2254 17.4487 18.9308 17.375C17.6704 17.0476 16.5327 16.5238 15.5179 15.8036C14.7813 15.9345 14.061 16 13.3571 16C11.1391 16 9.20759 15.4598 7.5625 14.3795C8.0372 14.4122 8.39732 14.4286 8.64286 14.4286C9.96057 14.4286 11.2251 14.2444 12.4364 13.8761C13.6477 13.5078 14.7281 12.9799 15.6775 12.2924C16.7005 11.5394 17.4862 10.6719 18.0346 9.68973C18.583 8.70759 18.8571 7.66815 18.8571 6.57143C18.8571 5.94122 18.763 5.3192 18.5748 4.70536C19.6306 5.28646 20.4654 6.01488 21.0792 6.89062C21.6931 7.76637 22 8.70759 22 9.71429Z" fill="#06DAC3"/>
</svg>
