<svg width="26" height="30" viewBox="0 0 26 30" fill="none" xmlns="http://www.w3.org/2000/svg">
<path d="M25.0078 9.6875C25.3477 9.6875 25.6875 9.4043 25.6875 9.00781V6.74219C25.6875 6.40234 25.3477 6.0625 25.0078 6.0625H23.875V3.34375C23.875 1.87109 22.6289 0.625 21.1562 0.625H3.03125C1.50195 0.625 0.3125 1.87109 0.3125 3.34375V26.9062C0.3125 28.4355 1.50195 29.625 3.03125 29.625H21.1562C22.6289 29.625 23.875 28.4355 23.875 26.9062V24.1875H25.0078C25.3477 24.1875 25.6875 23.9043 25.6875 23.5078V21.2422C25.6875 20.9023 25.3477 20.5625 25.0078 20.5625H23.875V16.9375H25.0078C25.3477 16.9375 25.6875 16.6543 25.6875 16.2578V13.9922C25.6875 13.6523 25.3477 13.3125 25.0078 13.3125H23.875V9.6875H25.0078ZM21.1562 26.9062H3.03125V3.34375H21.1562V26.9062ZM12.0938 15.125C14.0762 15.125 15.7188 13.5391 15.7188 11.5C15.7188 9.51758 14.0762 7.875 12.0938 7.875C10.0547 7.875 8.46875 9.51758 8.46875 11.5C8.46875 13.5391 10.0547 15.125 12.0938 15.125ZM6.99609 22.375H17.1348C17.8711 22.375 18.4375 21.9219 18.4375 21.2988V20.2227C18.4375 18.4102 16.6816 16.9375 14.5859 16.9375C14.0195 16.9375 13.5664 17.3906 12.0938 17.3906C10.5645 17.3906 10.168 16.9375 9.54492 16.9375C7.44922 16.9375 5.75 18.4102 5.75 20.2227V21.2988C5.75 21.9219 6.31641 22.375 6.99609 22.375Z" fill="#06DAC3"/>
</svg>
