<svg width="26" height="19" viewBox="0 0 26 19" fill="none" xmlns="http://www.w3.org/2000/svg">
<path d="M6.54688 10.2031L12.7969 16.4531C13.9688 17.625 16 16.8047 16 15.125V12.3516C20.6094 12.5469 20.7266 13.5625 20.0625 15.8672C19.5547 17.5469 21.4688 18.9141 22.9141 17.9375C24.9062 16.5703 26 14.8516 26 12.3516C26 6.76562 21 5.67188 16 5.47656V2.66406C16 0.984375 13.9688 0.164062 12.7969 1.33594L6.54688 7.58594C5.80469 8.28906 5.80469 9.5 6.54688 10.2031ZM7.875 8.875L14.125 2.625V7.3125C18.8125 7.3125 24.125 7.58594 24.125 12.3516C24.125 14.5391 22.9922 15.6328 21.8594 16.375C23.4609 11.0625 19.4766 10.4375 14.125 10.4375V15.125L7.875 8.875ZM1.54688 7.58594C0.804688 8.28906 0.804688 9.5 1.54688 10.2031L7.79688 16.4531C8.57812 17.2734 9.75 17.1562 10.4531 16.4531L2.875 8.875L10.4531 1.33594C9.75 0.632812 8.57812 0.515625 7.79688 1.33594L1.54688 7.58594Z" fill="#121416"/>
</svg>
