<svg width="395" height="348" viewBox="0 0 395 348" fill="none" xmlns="http://www.w3.org/2000/svg">
<path d="M117.447 288.297C147.098 288.57 175.957 298.856 200.385 317.347C264.271 365.696 333.456 342.152 354.687 321.592C379.342 297.703 391.967 261.185 392.954 225.083C393.929 188.982 384.164 153.273 369.783 120.703C358.534 95.2555 343.99 70.7954 323.389 53.7316C303.253 37.0601 278.663 28.4628 254.452 20.6741C223.327 10.6736 191.411 1.44609 159.019 2.36171C132.608 3.09896 102.794 14.0745 93.4093 41.0675C85.4222 64.0888 95.0783 91.2482 86.7335 114.115C75.04 146.138 35.5704 153.332 16.0524 180.373C-6.7169 211.896 0.35989 254.918 21.742 269.247C44.0344 284.206 84.5877 287.999 117.447 288.297Z" stroke="#FFD537" stroke-width="3.1387" stroke-miterlimit="10"/>
</svg>
