<svg width="225" height="109" viewBox="0 0 225 109" fill="none" xmlns="http://www.w3.org/2000/svg">
<path d="M13.1481 76.3679C55.8581 93.1793 99.7529 104.44 143.772 104.183C162.905 104.079 184.701 104.166 202.722 94.6158C211.271 90.0778 219.878 82.1335 220.977 67.646C222.363 49.2762 210.892 35.2588 200.906 27.2179C165.903 -0.962245 120.282 3.56052 82.2045 6.12755C61.2594 7.56939 40.2183 11.3015 20.4023 21.1492C14.2432 24.1994 -1.70459 30.792 5.73782 44.0162C9.5729 50.8451 16.7641 54.9568 22.1261 58.4055C62.0733 84.2021 105.527 88.9812 148.155 86.4613C150.328 86.3325 150.504 91.2898 148.331 91.4186C104.606 93.9773 59.5704 89.0201 18.8517 61.4317C12.3772 57.0608 -3.9171 46.3324 1.13856 32.0948C4.27727 23.2263 13.5355 19.7027 19.4163 16.7922C30.4826 11.3337 41.9705 7.7833 53.5703 5.39836C78.3 0.340518 103.691 0.456709 128.733 1.23489C150.355 1.92603 172.628 4.49122 193.003 16.9725C207.334 25.7434 227.976 44.79 223.586 71.8416C220.023 93.7705 201.953 100.932 188.724 103.79C130.327 116.483 69.7686 101.575 13.0061 77.3604C12.5744 77.1678 12.7173 76.2012 13.1481 76.3679Z" fill="currentColor"/>
</svg>
