<svg width="55" height="55" viewBox="0 0 55 55" fill="none" xmlns="http://www.w3.org/2000/svg">
<path d="M43.3332 33.9966C42.2097 32.8267 40.8545 32.2013 39.4182 32.2013C37.9935 32.2013 36.6267 32.8151 35.4568 33.985L31.7966 37.6337C31.4954 37.4715 31.1943 37.3209 30.9047 37.1703C30.4877 36.9619 30.0939 36.7649 29.758 36.5564C26.3294 34.3788 23.2136 31.541 20.2252 27.8692C18.7773 26.0391 17.8044 24.4986 17.0978 22.9349C18.0476 22.0661 18.9279 21.1627 19.7851 20.294C20.1094 19.9696 20.4337 19.6337 20.758 19.3094C23.1904 16.877 23.1904 13.7264 20.758 11.294L17.5959 8.13183C17.2368 7.77276 16.8661 7.4021 16.5187 7.03145C15.8237 6.3133 15.0939 5.57199 14.3411 4.87701C13.2175 3.76505 11.8739 3.17432 10.4608 3.17432C9.04763 3.17432 7.68084 3.76505 6.52254 4.87701C6.51096 4.8886 6.51096 4.8886 6.49938 4.90018L2.56117 8.87314C1.07855 10.3558 0.23299 12.1627 0.0476622 14.2592C-0.230329 17.6415 0.765807 20.792 1.53028 22.8538C3.40672 27.9155 6.20981 32.6067 10.3913 37.6337C15.4646 43.6916 21.5688 48.4753 28.5418 51.846C31.2059 53.1085 34.7618 54.6027 38.7348 54.8575C38.978 54.8691 39.2329 54.8807 39.4645 54.8807C42.1402 54.8807 44.3873 53.9193 46.1479 52.0081C46.1595 51.985 46.1827 51.9734 46.1942 51.9502C46.7965 51.2205 47.4915 50.5603 48.2213 49.8537C48.7193 49.3788 49.229 48.8807 49.727 48.3595C50.8738 47.1665 51.4761 45.7765 51.4761 44.3518C51.4761 42.9155 50.8622 41.5371 49.6923 40.3788L43.3332 33.9966ZM47.4799 46.1935C47.4684 46.1935 47.4684 46.2051 47.4799 46.1935C47.0282 46.68 46.5649 47.1201 46.0668 47.6066C45.3139 48.3248 44.5494 49.0776 43.8313 49.9232C42.6614 51.1742 41.2831 51.7649 39.4761 51.7649C39.3024 51.7649 39.117 51.7649 38.9433 51.7533C35.5031 51.5332 32.3062 50.1896 29.9086 49.0429C23.3526 45.8692 17.5959 41.3634 12.8121 35.653C8.86231 30.8924 6.22139 26.4908 4.47236 21.765C3.39514 18.8808 3.00132 16.6337 3.17507 14.514C3.29089 13.1588 3.81213 12.0353 4.77352 11.0739L8.72331 7.12411C9.29088 6.59129 9.89319 6.30172 10.4839 6.30172C11.2136 6.30172 11.8044 6.74187 12.175 7.11253C12.1866 7.12411 12.1982 7.13569 12.2098 7.14728C12.9163 7.80751 13.5882 8.4909 14.2947 9.22063C14.6538 9.59128 15.0244 9.96194 15.3951 10.3442L18.5573 13.5063C19.7851 14.7341 19.7851 15.8693 18.5573 17.0971C18.2213 17.433 17.897 17.7689 17.5611 18.0932C16.5882 19.0893 15.6615 20.016 14.6538 20.9194C14.6306 20.9426 14.6075 20.9542 14.5959 20.9773C13.5997 21.9735 13.7851 22.9465 13.9936 23.6067C14.0051 23.6414 14.0167 23.6762 14.0283 23.7109C14.8507 25.7032 16.009 27.5796 17.7696 29.8152L17.7812 29.8267C20.9781 33.765 24.3487 36.8344 28.0669 39.1858C28.5418 39.4869 29.0283 39.7302 29.4916 39.9618C29.9086 40.1703 30.3024 40.3672 30.6383 40.5757C30.6846 40.5989 30.731 40.6337 30.7773 40.6568C31.1711 40.8537 31.5418 40.9464 31.924 40.9464C32.8854 40.9464 33.4877 40.3441 33.6846 40.1472L37.646 36.1858C38.0398 35.792 38.6653 35.3171 39.395 35.3171C40.1132 35.3171 40.7039 35.7688 41.063 36.1626C41.0746 36.1742 41.0746 36.1742 41.0861 36.1858L47.4684 42.568C48.6614 43.7495 48.6614 44.9657 47.4799 46.1935Z" fill="currentColor"/>
<path d="M29.6192 13.0546C32.6539 13.5643 35.4106 15.0006 37.6114 17.2013C39.8122 19.4021 41.2369 22.1589 41.7581 25.1936C41.8855 25.9581 42.5458 26.4909 43.2987 26.4909C43.3913 26.4909 43.4724 26.4793 43.5651 26.4677C44.4222 26.3287 44.9898 25.5179 44.8508 24.6608C44.2253 20.989 42.4878 17.6415 39.8353 14.989C37.1828 12.3365 33.8354 10.5991 30.1636 9.97357C29.3064 9.83458 28.5072 10.4021 28.3566 11.2477C28.206 12.0933 28.762 12.9156 29.6192 13.0546Z" fill="currentColor"/>
<path d="M54.7789 24.2091C53.748 18.1628 50.8986 12.6609 46.5202 8.2825C42.1419 3.90414 36.6399 1.05472 30.5936 0.0238395C29.7481 -0.126739 28.9488 0.45241 28.7983 1.29797C28.6593 2.15511 29.2268 2.95433 30.084 3.10491C35.4816 4.01997 40.4044 6.5798 44.3195 10.4833C48.2345 14.3983 50.7828 19.3211 51.6978 24.7187C51.8252 25.4832 52.4855 26.016 53.2383 26.016C53.331 26.016 53.4121 26.0045 53.5048 25.9929C54.3503 25.8655 54.9295 25.0546 54.7789 24.2091Z" fill="currentColor"/>
</svg>
