<svg width="72" height="72" viewBox="0 0 72 72" fill="none" xmlns="http://www.w3.org/2000/svg">
<path d="M47.8336 8.25977C41.4275 8.26573 35.2856 10.8139 30.7569 15.3448C26.2281 19.8756 23.6828 26.0187 23.6798 32.4248C23.6657 37.1083 25.027 41.6929 27.5948 45.6098L24.1185 56.8598C24.0147 57.1963 23.9912 57.5525 24.0501 57.8997C24.109 58.2469 24.2485 58.5755 24.4576 58.8589C24.6666 59.1424 24.9392 59.3728 25.2536 59.5317C25.5679 59.6905 25.9151 59.7734 26.2673 59.7735C26.4338 59.7715 26.5996 59.7526 26.7623 59.7173L42.8273 56.0948C46.1318 56.7738 49.5419 56.7534 52.8381 56.0349C56.1343 55.3164 59.2435 53.9157 61.9656 51.9229C64.6877 49.9301 66.9624 47.3895 68.6432 44.4645C70.3241 41.5394 71.3739 38.2949 71.7251 34.9396C72.0762 31.5844 71.7209 28.1928 70.6821 24.9832C69.6433 21.7735 67.9439 18.8169 65.6934 16.3037C63.4428 13.7906 60.691 11.7764 57.615 10.391C54.5391 9.00562 51.2071 8.27962 47.8336 8.25977ZM47.8336 52.1348C46.3185 52.1381 44.8083 51.9644 43.3336 51.6173C43.0004 51.5404 42.6542 51.5404 42.3211 51.6173L29.5636 54.441L32.2186 45.9023C32.3214 45.567 32.3444 45.2124 32.2858 44.8667C32.2272 44.5209 32.0886 44.1937 31.8811 43.911C29.4629 40.5704 28.1669 36.5487 28.1798 32.4248C28.1776 28.5344 29.3293 24.7309 31.4893 21.4952C33.6492 18.2596 36.7204 15.7374 40.3141 14.2476C43.9079 12.7578 47.8628 12.3674 51.6785 13.1258C55.4942 13.8842 58.9992 15.7574 61.7501 18.5083C64.5009 21.2591 66.3741 24.7641 67.1325 28.5798C67.8909 32.3955 67.5005 36.3504 66.0108 39.9442C64.521 43.538 61.9987 46.6091 58.7631 48.7691C55.5275 50.929 51.7239 52.0807 47.8336 52.0785V52.1348Z" fill="currentColor"/>
<path d="M31.9961 33.4375C33.2387 33.4375 34.2461 32.4301 34.2461 31.1875C34.2461 29.9449 33.2387 28.9375 31.9961 28.9375C30.7535 28.9375 29.7461 29.9449 29.7461 31.1875C29.7461 32.4301 30.7535 33.4375 31.9961 33.4375Z" fill="currentColor"/>
<path d="M39.8711 33.4375C41.1137 33.4375 42.1211 32.4301 42.1211 31.1875C42.1211 29.9449 41.1137 28.9375 39.8711 28.9375C38.6285 28.9375 37.6211 29.9449 37.6211 31.1875C37.6211 32.4301 38.6285 33.4375 39.8711 33.4375Z" fill="currentColor"/>
<path d="M47.7461 33.4375C48.9887 33.4375 49.9961 32.4301 49.9961 31.1875C49.9961 29.9449 48.9887 28.9375 47.7461 28.9375C46.5035 28.9375 45.4961 29.9449 45.4961 31.1875C45.4961 32.4301 46.5035 33.4375 47.7461 33.4375Z" fill="currentColor"/>
<path d="M55.6211 33.4375C56.8637 33.4375 57.8711 32.4301 57.8711 31.1875C57.8711 29.9449 56.8637 28.9375 55.6211 28.9375C54.3785 28.9375 53.3711 29.9449 53.3711 31.1875C53.3711 32.4301 54.3785 33.4375 55.6211 33.4375Z" fill="currentColor"/>
<path d="M63.4961 33.4375C64.7387 33.4375 65.7461 32.4301 65.7461 31.1875C65.7461 29.9449 64.7387 28.9375 63.4961 28.9375C62.2535 28.9375 61.2461 29.9449 61.2461 31.1875C61.2461 32.4301 62.2535 33.4375 63.4961 33.4375Z" fill="currentColor"/>
<path d="M19.125 17.6875H2.25C1.65326 17.6875 1.08097 17.9246 0.65901 18.3465C0.237053 18.7685 0 19.3408 0 19.9375C0 20.5342 0.237053 21.1065 0.65901 21.5285C1.08097 21.9504 1.65326 22.1875 2.25 22.1875H19.125C19.7217 22.1875 20.294 21.9504 20.716 21.5285C21.1379 21.1065 21.375 20.5342 21.375 19.9375C21.375 19.3408 21.1379 18.7685 20.716 18.3465C20.294 17.9246 19.7217 17.6875 19.125 17.6875Z" fill="currentColor"/>
<path d="M19.125 26.6875H7.875C7.27826 26.6875 6.70597 26.9246 6.28401 27.3465C5.86205 27.7685 5.625 28.3408 5.625 28.9375C5.625 29.5342 5.86205 30.1065 6.28401 30.5285C6.70597 30.9504 7.27826 31.1875 7.875 31.1875H19.125C19.7217 31.1875 20.294 30.9504 20.716 30.5285C21.1379 30.1065 21.375 29.5342 21.375 28.9375C21.375 28.3408 21.1379 27.7685 20.716 27.3465C20.294 26.9246 19.7217 26.6875 19.125 26.6875Z" fill="currentColor"/>
<path d="M19.125 35.6875H4.5C3.90326 35.6875 3.33097 35.9246 2.90901 36.3465C2.48705 36.7685 2.25 37.3408 2.25 37.9375C2.25 38.5342 2.48705 39.1065 2.90901 39.5285C3.33097 39.9504 3.90326 40.1875 4.5 40.1875H19.125C19.7217 40.1875 20.294 39.9504 20.716 39.5285C21.1379 39.1065 21.375 38.5342 21.375 37.9375C21.375 37.3408 21.1379 36.7685 20.716 36.3465C20.294 35.9246 19.7217 35.6875 19.125 35.6875Z" fill="currentColor"/>
</svg>