<svg width="12" height="10" viewBox="0 0 12 10" fill="none" xmlns="http://www.w3.org/2000/svg">
<path d="M11.196 1.39334C10.284 2.22534 9.396 3.19334 8.532 4.29734C7.78 5.24934 7.104 6.22534 6.504 7.22534C5.96 8.12134 5.564 8.88934 5.316 9.52934C5.308 9.55334 5.292 9.57334 5.268 9.58934C5.244 9.61334 5.216 9.62534 5.184 9.62534C5.176 9.63334 5.168 9.63734 5.16 9.63734C5.104 9.63734 5.064 9.62134 5.04 9.58934L0.756 5.23334C0.748 5.22534 0.852 5.12134 1.068 4.92134C1.284 4.71334 1.496 4.52534 1.704 4.35734C1.936 4.16534 2.06 4.07734 2.076 4.09334L4.428 5.94134C5.116 5.13334 5.888 4.33334 6.744 3.54134C8.032 2.35734 9.36 1.34934 10.728 0.517344C10.752 0.517344 10.844 0.629344 11.004 0.853343L11.244 1.20134C11.252 1.23334 11.252 1.26934 11.244 1.30934C11.236 1.34134 11.22 1.36934 11.196 1.39334Z" fill="currentColor"/>
</svg>
