<svg width="130" height="8" viewBox="0 0 130 8" fill="none" xmlns="http://www.w3.org/2000/svg">
<path d="M0.406277 7.82144C0.682129 4.52972 9.33282 8.38041 11.5176 7.67652C13.1396 7.1486 12.301 7.03474 13.7133 6.19628C14.8829 4.61253 16.6484 3.89829 18.9986 4.06391C19.6717 4.48831 20.3227 4.93342 20.9737 5.38888C22.3089 6.09277 23.4233 6.51717 24.946 6.13417C26.3142 5.79258 26.9763 4.79885 28.1238 4.18812C32.6036 1.80732 33.1553 2.90456 36.5538 4.58147C38.1538 5.36817 39.7758 6.48612 41.7067 6.08242C42.446 5.92715 42.5012 5.67871 42.9867 5.54415C44.4983 4.10531 46.4624 3.52564 48.8789 3.80512C49.7395 4.28129 50.5891 4.75745 51.4388 5.25431C53.8883 6.22733 57.6068 6.23769 57.7723 3.08053C57.3971 3.22545 57.033 3.37037 56.6689 3.51529C58.7874 5.75117 61.9432 6.59998 65.0217 5.5752C68.4974 4.41585 67.4602 3.02877 70.9911 4.35374C72.569 4.94377 74.2572 5.14045 75.9454 4.96447C77.8322 4.7678 79.377 3.27721 80.9879 3.07018C83.5478 2.73894 85.9643 4.89201 89.0428 4.15707C90.1793 3.88793 91.8896 2.27313 92.7944 2.21102C93.6771 2.14891 95.0674 3.68091 96.0053 4.14672C98.7086 5.51309 102.085 5.75117 104.976 4.7471C107.701 3.80512 106.598 3.60845 108.992 4.30199C110.305 4.67464 111.243 5.34747 112.722 5.45099C115.867 5.65801 118.559 4.26058 120.148 1.77626C119.695 1.77626 119.243 1.77626 118.78 1.77626C121.251 5.49239 126.393 6.10312 129.758 3.05983C130.498 2.39734 129.372 1.34151 128.633 2.00399C126.106 4.29164 122.09 3.95004 120.148 1.03097C119.839 0.554807 119.1 0.544455 118.78 1.03097C116.496 4.62288 111.144 4.84026 108.385 1.7038C108.099 1.38291 107.569 1.46572 107.271 1.7038C103.166 4.99553 97.0425 4.46761 93.7212 0.368483C93.4564 0.0372403 92.8495 -0.190489 92.4965 0.223564C89.8042 3.37037 85.3685 3.86723 82.0803 1.10343C81.7824 0.854995 81.33 0.823941 81.021 1.10343C77.6005 4.26058 72.591 4.52972 68.8505 1.63134C68.5195 1.37256 68.034 1.38291 67.7912 1.75556C65.5072 5.40958 60.4867 5.74082 57.5626 2.65613C57.1654 2.24207 56.4813 2.59402 56.4592 3.09088C56.2386 7.04509 48.272 1.72451 46.3962 1.92118C42.7881 2.30418 42.5012 5.74082 37.7345 3.82583C35.3952 2.88386 33.6188 0.989563 30.8382 1.39326C28.4548 1.74521 27.4397 3.86723 25.3322 4.63323C21.6248 5.9789 20.3669 2.13856 17.178 2.33524C11.9369 2.66648 14.9492 7.41774 6.80603 5.75117C4.46681 5.27501 -0.233697 3.93969 0.00905172 7.82144C0.0200858 8.05952 0.384209 8.05952 0.406277 7.82144Z" fill="currentColor"/>
</svg>
